<?xml version="1.0" standalone="no"?>
<!DOCTYPE svg PUBLIC "-//W3C//DTD SVG 20010904//EN"
 "http://www.w3.org/TR/2001/REC-SVG-20010904/DTD/svg10.dtd">
<svg version="1.0" xmlns="http://www.w3.org/2000/svg"
 width="870.000000pt" height="870.000000pt" viewBox="0 0 870.000000 870.000000"
 preserveAspectRatio="xMidYMid meet">
<metadata>
Created by potrace 1.11, written by Peter Selinger 2001-2013
</metadata>
<g transform="translate(0.000000,870.000000) scale(0.100000,-0.100000)"
fill="#000000" stroke="none">
<path d="M3188 7254 l-1188 -1176 1 -1412 c1 -776 5 -1579 8 -1784 l6 -373
548 549 547 549 0 -711 c0 -657 -1 -714 -18 -746 -23 -46 -65 -52 -125 -17
-52 31 -147 129 -216 225 -29 39 -56 72 -60 72 -4 0 -16 -36 -28 -80 l-21 -80
55 -92 c140 -237 307 -418 457 -493 126 -64 205 -43 261 70 l30 60 3 870 3
869 -101 101 -100 100 563 563 562 562 295 -295 295 -295 -291 -292 -292 -293
-6 -1772 c-4 -975 -4 -1773 1 -1773 4 0 538 530 1186 1178 l1177 1177 0 1775
0 1775 -1182 1182 -1183 1182 -1187 -1175z m2531 -1007 c267 -360 441 -777
444 -1067 1 -120 -19 -185 -73 -234 -53 -48 -107 -55 -201 -26 -39 11 -72 20
-74 18 -2 -2 212 -520 480 -1158 l36 -85 -99 98 -99 98 -39 -136 -39 -136 -82
-39 c-127 -62 -251 -151 -339 -242 -127 -132 -210 -267 -221 -358 -5 -41 -3
-49 14 -59 38 -20 77 -2 291 132 289 179 401 207 446 112 22 -46 20 -171 -4
-273 -88 -366 -474 -901 -808 -1120 -108 -70 -245 -128 -250 -106 -4 15 12
170 25 257 5 36 10 40 92 82 201 101 386 252 502 410 125 171 167 325 88 325
-45 0 -85 -20 -251 -126 -241 -154 -358 -199 -423 -164 -35 19 -55 79 -55 163
0 255 230 681 539 999 163 169 309 274 429 309 l43 12 -79 81 -79 81 -158 380
c-87 209 -171 408 -186 442 -15 33 -51 117 -79 185 l-51 125 -130 129 -129
129 0 -330 0 -330 -165 165 -165 165 0 985 0 985 388 -390 c263 -264 412 -421
461 -488z"/>
<path d="M5200 6144 l0 -330 203 -200 c211 -208 262 -246 337 -248 139 -3 129
236 -21 509 -76 138 -137 214 -336 415 l-183 185 0 -331z"/>
</g>
</svg>
